<mxfile host="app.diagrams.net" modified="2023-12-03T14:31:55.167Z" agent="Mozilla/5.0 (Windows NT 10.0; Win64; x64) AppleWebKit/537.36 (KHTML, like Gecko) Chrome/114.0.0.0 Safari/537.36" etag="tMujMKL_fHyklbRqTFOB" version="22.1.5" type="device">
  <diagram name="‫עמוד-1‬" id="7ujGVMIC4xtKWr2U2t12">
    <mxGraphModel dx="954" dy="1231" grid="1" gridSize="10" guides="1" tooltips="1" connect="1" arrows="1" fold="1" page="1" pageScale="1" pageWidth="827" pageHeight="1169" math="0" shadow="0">
      <root>
        <mxCell id="0" />
        <mxCell id="1" parent="0" />
        <mxCell id="bLk-eUr5ARzQPCFEUJqk-3" value="" style="rounded=0;whiteSpace=wrap;html=1;" vertex="1" parent="1">
          <mxGeometry x="220" y="250" width="490" height="495" as="geometry" />
        </mxCell>
        <mxCell id="bLk-eUr5ARzQPCFEUJqk-6" value="&lt;font style=&quot;font-size: 20px;&quot;&gt;הצפנת כל חלק&lt;/font&gt;" style="ellipse;whiteSpace=wrap;html=1;aspect=fixed;fillColor=#ffff88;strokeColor=#36393d;fontSize=20;" vertex="1" parent="1">
          <mxGeometry x="560" y="340" width="140" height="140" as="geometry" />
        </mxCell>
        <mxCell id="bLk-eUr5ARzQPCFEUJqk-10" style="edgeStyle=orthogonalEdgeStyle;rounded=0;orthogonalLoop=1;jettySize=auto;html=1;" edge="1" parent="1" source="bLk-eUr5ARzQPCFEUJqk-7" target="bLk-eUr5ARzQPCFEUJqk-8">
          <mxGeometry relative="1" as="geometry" />
        </mxCell>
        <mxCell id="bLk-eUr5ARzQPCFEUJqk-7" value="&lt;font style=&quot;font-size: 20px;&quot;&gt;חישוב hash כולל לכל הקובץ&lt;/font&gt;" style="ellipse;whiteSpace=wrap;html=1;aspect=fixed;fontSize=20;fillColor=#d5e8d4;strokeColor=#82b366;" vertex="1" parent="1">
          <mxGeometry x="400" y="270" width="140" height="140" as="geometry" />
        </mxCell>
        <mxCell id="bLk-eUr5ARzQPCFEUJqk-15" value="" style="edgeStyle=orthogonalEdgeStyle;rounded=0;orthogonalLoop=1;jettySize=auto;html=1;" edge="1" parent="1" source="bLk-eUr5ARzQPCFEUJqk-8" target="bLk-eUr5ARzQPCFEUJqk-13">
          <mxGeometry relative="1" as="geometry" />
        </mxCell>
        <mxCell id="bLk-eUr5ARzQPCFEUJqk-8" value="פירוק הקובץ לחלקים שווים&amp;nbsp;" style="ellipse;whiteSpace=wrap;html=1;aspect=fixed;fillColor=#cce5ff;strokeColor=#36393d;fontSize=20;" vertex="1" parent="1">
          <mxGeometry x="230" y="360" width="140" height="140" as="geometry" />
        </mxCell>
        <mxCell id="bLk-eUr5ARzQPCFEUJqk-17" value="" style="edgeStyle=orthogonalEdgeStyle;rounded=0;orthogonalLoop=1;jettySize=auto;html=1;" edge="1" parent="1" source="bLk-eUr5ARzQPCFEUJqk-11" target="bLk-eUr5ARzQPCFEUJqk-6">
          <mxGeometry relative="1" as="geometry" />
        </mxCell>
        <mxCell id="bLk-eUr5ARzQPCFEUJqk-11" value="חישוב hash לכל חלק בנפרד&amp;nbsp;" style="ellipse;whiteSpace=wrap;html=1;aspect=fixed;fillColor=#ffcc99;strokeColor=#36393d;fontSize=20;" vertex="1" parent="1">
          <mxGeometry x="490" y="550" width="140" height="140" as="geometry" />
        </mxCell>
        <mxCell id="bLk-eUr5ARzQPCFEUJqk-19" style="edgeStyle=orthogonalEdgeStyle;rounded=0;orthogonalLoop=1;jettySize=auto;html=1;" edge="1" parent="1" source="bLk-eUr5ARzQPCFEUJqk-13" target="bLk-eUr5ARzQPCFEUJqk-11">
          <mxGeometry relative="1" as="geometry" />
        </mxCell>
        <mxCell id="bLk-eUr5ARzQPCFEUJqk-13" value="מספור כל חלק&amp;nbsp;" style="ellipse;whiteSpace=wrap;html=1;aspect=fixed;fillColor=#ffcccc;strokeColor=#36393d;fontSize=20;" vertex="1" parent="1">
          <mxGeometry x="250" y="580" width="140" height="140" as="geometry" />
        </mxCell>
        <mxCell id="bLk-eUr5ARzQPCFEUJqk-20" value="&lt;h1&gt;פירוק קובץ&lt;/h1&gt;" style="text;html=1;strokeColor=none;fillColor=none;spacing=5;spacingTop=-20;whiteSpace=wrap;overflow=hidden;rounded=0;" vertex="1" parent="1">
          <mxGeometry x="375" y="140" width="190" height="50" as="geometry" />
        </mxCell>
      </root>
    </mxGraphModel>
  </diagram>
</mxfile>
